<?xml version="1.0" encoding="UTF-8"?>
<svg version="1.1" xmlns="http://www.w3.org/2000/svg" width="400" height="400">
<path d="M0 0 C0.82886719 0.69609375 1.65773438 1.3921875 2.51171875 2.109375 C13.43741927 11.50856477 22.00792162 22.40851593 29 35 C29.33628418 35.60150879 29.67256836 36.20301758 30.01904297 36.82275391 C47.78584262 69.02664299 50.43581169 106.08262966 40.3125 141.1875 C34.99433704 158.55826613 25.79450583 174.33053194 14.1875 188.25 C13.73141357 188.79938232 13.27532715 189.34876465 12.80541992 189.91479492 C10.37861587 192.73242756 8.29058331 194.37255316 5 196 C4.70198486 196.61818604 4.40396973 197.23637207 4.09692383 197.87329102 C2.88040158 200.23187665 1.73110018 201.29877264 -0.3515625 202.91796875 C-1.02936768 203.44567871 -1.70717285 203.97338867 -2.40551758 204.51708984 C-3.50416138 205.34394287 -3.50416138 205.34394287 -4.625 206.1875 C-5.38772217 206.76193848 -6.15044434 207.33637695 -6.9362793 207.92822266 C-24.97772197 221.26231111 -49.09184331 233 -72 233 C-72 196.7 -72 160.4 -72 123 C-61.44 122.67 -50.88 122.34 -40 122 C-38.09295163 120.09295163 -38.24236177 116.81617749 -37.84375 114.26171875 C-37.7365564 113.584543 -37.62936279 112.90736725 -37.5189209 112.20967102 C-37.17542457 110.0362002 -36.83740646 107.86192384 -36.5 105.6875 C-36.16181315 103.52392194 -35.82244694 101.36054248 -35.4810791 99.19746399 C-35.17043043 97.22668068 -34.86344765 95.25532057 -34.55664062 93.28393555 C-34 90 -34 90 -33 86 C-45.87 86 -58.74 86 -72 86 C-72.061875 81.71 -72.12375 77.42 -72.1875 73 C-72.22846802 70.99486328 -72.22846802 70.99486328 -72.27026367 68.94921875 C-72.32841308 60.59571231 -71.92813478 54.87849431 -66.7734375 48.05078125 C-61.52832148 44.17938609 -53.87532892 45.21142262 -47.625 45.1875 C-46.20699312 45.16433631 -44.78902046 45.13896707 -43.37109375 45.11132812 C-39.91408955 45.04871974 -36.45756907 45.01619247 -33 45 C-32.975241 40.51595436 -32.95711201 36.03194519 -32.94506836 31.54785156 C-32.94004635 30.02310493 -32.9332275 28.49836309 -32.92456055 26.97363281 C-32.91240151 24.77928481 -32.90675032 22.5850006 -32.90234375 20.390625 C-32.89710693 19.07094727 -32.89187012 17.75126953 -32.88647461 16.39160156 C-32.97688671 13.69051582 -33.18118645 11.5499384 -34 9 C-38.28261912 8.94964814 -42.56507039 8.91384329 -46.84790039 8.89013672 C-48.29747528 8.88022892 -49.74703103 8.86669886 -51.1965332 8.84912109 C-69.27783057 8.63573543 -88.86182545 9.23398797 -103 22 C-112.19162745 32.17959508 -115.03279887 44.81988325 -115.28125 58.20703125 C-115.31900526 59.77799492 -115.35676583 61.34895845 -115.39453125 62.91992188 C-115.44838396 65.3801014 -115.50058399 67.84031066 -115.55224609 70.30053711 C-115.60379357 72.68614467 -115.66105939 75.07156564 -115.71875 77.45703125 C-115.73232544 78.19862991 -115.74590088 78.94022858 -115.7598877 79.70429993 C-115.88706362 84.88706362 -115.88706362 84.88706362 -117 86 C-118.78071246 86.08726223 -120.5648314 86.10699041 -122.34765625 86.09765625 C-123.31968994 86.09515869 -124.29172363 86.09266113 -125.29321289 86.09008789 C-126.53707764 86.08098389 -127.78094238 86.07187988 -129.0625 86.0625 C-133.001875 86.041875 -136.94125 86.02125 -141 86 C-141 98.21 -141 110.42 -141 123 C-132.75 123 -124.5 123 -116 123 C-116 158.31 -116 193.62 -116 230 C-137.60136515 227.29982936 -156.52905371 216.86999457 -173 203 C-174.00675781 202.15824219 -175.01351562 201.31648437 -176.05078125 200.44921875 C-200.38260353 179.45859985 -217.24469203 147.31904601 -219.87109375 115.13720703 C-222.21221215 76.32252805 -211.86260867 40.62271618 -185.90234375 11.16015625 C-164.23921425 -12.75879124 -132.73630586 -29.31817022 -100.3671875 -31.83984375 C-63.34918892 -33.60056062 -28.25862902 -24.82939447 0 0 Z " fill="#FDFDFD" transform="translate(287,99)"/>
<path d="M0 0 C0.66 0.33 1.32 0.66 2 1 C-0.97 3.97 -3.94 6.94 -7 10 C-7.99 9.67 -8.98 9.34 -10 9 C-6.7 6.03 -3.4 3.06 0 0 Z " fill="#DFD8D7" transform="translate(116,96)"/>
</svg>
