<?xml version="1.0" encoding="UTF-8"?>
<svg version="1.1" xmlns="http://www.w3.org/2000/svg" width="400" height="400">
<path d="M0 0 C0.77988281 0.54914063 1.55976563 1.09828125 2.36328125 1.6640625 C2.90339844 2.10492188 3.44351563 2.54578125 4 3 C4 3.66 4 4.32 4 5 C4.89332031 5.39251953 4.89332031 5.39251953 5.8046875 5.79296875 C23.28937792 15.40643733 35.08503675 43.84733525 40.55078125 61.92578125 C50.88221453 98.37237375 46.34830144 134.88447246 28.3125 168 C10.4246574 198.33306643 -18.27273103 220.99097979 -52.5625 229.96875 C-89.15486437 238.80590419 -125.26287616 233.31505844 -157.58984375 214.125 C-189.08099264 194.85522557 -208.90384864 164.61431531 -217.51123047 129.13867188 C-225.0670885 96.07707527 -218.49651163 60.10195774 -200.94580078 31.26806641 C-181.61532596 0.71972337 -152.14765299 -20.3099139 -117.0859375 -29.0078125 C-74.57782707 -38.54666952 -33.46673543 -26.75407133 0 0 Z M-153.875 34.375 C-154.94674675 35.55673508 -155.99019768 36.7649137 -157 38 C-157.46019531 38.55945313 -157.92039062 39.11890625 -158.39453125 39.6953125 C-169.53125792 55.23962586 -167.18446024 78.31792468 -167.125 96.5 C-167.12311676 97.37208099 -167.12123352 98.24416199 -167.11929321 99.14266968 C-167.09260966 109.70078243 -167.03754334 120.25946934 -166.6875 130.8125 C-166.66510254 131.7096875 -166.64270508 132.606875 -166.61962891 133.53125 C-166.0717398 146.48225759 -161.70298061 160.00429816 -152 169 C-142.54546507 176.6783405 -131.54578216 180.14160991 -119.47851562 180.16113281 C-118.73788879 180.16609772 -117.99726196 180.17106262 -117.23419189 180.17617798 C-114.79153498 180.19074205 -112.34894316 180.19759446 -109.90625 180.203125 C-108.64665718 180.20736607 -108.64665718 180.20736607 -107.36161804 180.21169281 C-102.91164843 180.2266677 -98.46171106 180.23590596 -94.01171875 180.24023438 C-89.44716666 180.24569485 -84.88291651 180.26967614 -80.31845856 180.29820633 C-76.78193345 180.31697399 -73.24547875 180.32204591 -69.70890808 180.32357025 C-68.02823753 180.3265691 -66.34756738 180.3345022 -64.66694641 180.34775543 C-48.88711763 180.46324079 -32.86336113 179.07780137 -20.66015625 167.85546875 C-11.46613113 157.57979362 -7.92520295 146.06685494 -7.82299805 132.50439453 C-7.81314125 131.41509392 -7.81314125 131.41509392 -7.80308533 130.30378723 C-7.78346909 127.91346096 -7.77171053 125.52319745 -7.76171875 123.1328125 C-7.75560546 121.89676081 -7.75560546 121.89676081 -7.74936867 120.63573837 C-7.72854883 116.26660163 -7.71423438 111.89749583 -7.70483398 107.52832031 C-7.69383023 103.059282 -7.6594892 98.59074992 -7.61966228 94.12188911 C-7.59325596 90.64872442 -7.58512071 87.17567547 -7.58155251 83.70241928 C-7.5767414 82.05770355 -7.56528831 80.41299101 -7.54651451 78.7683754 C-7.38380835 63.55929717 -8.70202525 48.0863635 -19 36 C-29.46846813 25.75684658 -40.80509225 22.23462066 -55.11328125 21.45703125 C-55.90059631 21.41413971 -56.68791138 21.37124817 -57.49908447 21.32705688 C-66.41553191 20.87877774 -75.32426386 20.84478535 -84.25 20.875 C-85.09729675 20.87688324 -85.94459351 20.87876648 -86.81756592 20.88070679 C-122.73017483 19.34690049 -122.73017483 19.34690049 -153.875 34.375 Z " fill="#FEFEFE" transform="translate(287,99)"/>
<path d="M0 0 C0.6888925 -0.00282738 1.377785 -0.00565475 2.08755302 -0.00856781 C5.737002 -0.02347711 9.38641232 -0.03275733 13.03588867 -0.03710938 C16.75482406 -0.0425671 20.47338841 -0.0665615 24.19220829 -0.09508133 C27.09662319 -0.1139485 30.00095319 -0.11892599 32.90542412 -0.12044525 C34.92788352 -0.12484318 36.95029702 -0.14336786 38.97267151 -0.16241455 C64.43836204 -0.10228901 64.43836204 -0.10228901 72.85546875 7.40234375 C83.98990203 19.86101788 83.61930188 33.84523733 83.6328125 49.7578125 C83.63603576 51.1496687 83.63940059 52.54152459 83.64289856 53.93338013 C83.64884869 56.83629134 83.65074267 59.73917297 83.65014648 62.64208984 C83.65004495 66.32879898 83.66370681 70.01531518 83.68091869 73.70197868 C83.69213311 76.57277264 83.69406284 79.44352127 83.69353676 82.31433487 C83.69526172 84.32365605 83.70603703 86.3329631 83.71708679 88.34225464 C83.68499122 101.36297 83.00329575 114.399716 73.46484375 124.203125 C61.73244294 133.03451642 48.01034399 132.35912314 33.9453125 132.37109375 C32.55585193 132.37431737 31.16639167 132.37768221 29.77693176 132.38117981 C26.8782167 132.38713053 23.97953127 132.3890239 21.08081055 132.38842773 C17.40316764 132.3883263 13.72571856 132.40197797 10.04812145 132.41919994 C7.18157615 132.43042736 4.31507615 132.43234369 1.44851112 132.43181801 C-0.55467035 132.43354001 -2.55783769 132.44430836 -4.56098938 132.45536804 C-29.89179432 132.39292479 -29.89179432 132.39292479 -39.3125 123.53125 C-49.42828597 112.35194619 -48.85205003 97.88419258 -48.8359375 83.55078125 C-48.8398398 82.07832217 -48.84417751 80.60586419 -48.84892273 79.13340759 C-48.85632209 76.0684746 -48.85613946 73.00365694 -48.85083008 69.9387207 C-48.84503695 66.05152977 -48.86199335 62.16481557 -48.88517475 58.27770329 C-48.90005195 55.24296914 -48.90076513 52.20834624 -48.89766502 49.17358208 C-48.89817102 47.74215182 -48.90326937 46.3107141 -48.91347694 44.87932014 C-49.07030241 19.82627168 -49.07030241 19.82627168 -41.3359375 10.8828125 C-29.44999537 -0.20385803 -15.39496518 0.04311689 0 0 Z M52.46484375 17.203125 C50.60615461 21.30773018 50.11847274 23.23693218 51.65234375 27.515625 C53.35132042 30.40165157 53.35132042 30.40165157 56.46484375 32.203125 C60.48520107 32.64983137 62.76106186 32.58561516 66.33984375 30.640625 C69.13089683 27.43912294 69.46484375 25.42206771 69.46484375 21.203125 C68.22208702 18.2597538 67.20150219 16.71878591 64.58984375 14.890625 C59.76158982 13.32854285 56.37939796 13.92336336 52.46484375 17.203125 Z M-12.28515625 37.328125 C-19.81859495 45.36023103 -24.08705082 56.82260954 -23.78515625 67.78515625 C-22.6455019 78.80775063 -17.80983518 89.68560624 -9.53515625 97.203125 C0.48614718 104.36119888 11.11634038 108.51355351 23.5859375 106.765625 C30.18500745 105.2860883 35.85719074 102.97771542 41.46484375 99.203125 C42.07972656 98.79578125 42.69460937 98.3884375 43.328125 97.96875 C51.07246587 92.13044425 55.83597099 82.37541956 57.94921875 73.0703125 C59.57884127 60.84814363 55.84302271 50.20335242 49.0546875 40.10546875 C42.5904231 31.91259883 33.56782309 27.38238412 23.4296875 25.69921875 C9.63254802 24.13696815 -1.96315438 28.06768569 -12.28515625 37.328125 Z " fill="#FDFDFD" transform="translate(182.53515625,133.796875)"/>
<path d="M0 0 C6.80765417 4.12256348 11.20282685 9.51872014 13.5703125 17.15234375 C15.17285251 25.50157721 13.96089381 32.0005228 9.87109375 39.4453125 C6.25056874 44.64287601 1.72573848 47.7743795 -3.8515625 50.625 C-13.73693214 52.369477 -21.68882664 51.55958699 -30.0078125 45.83203125 C-35.20952535 41.72135563 -38.74765526 36.80143617 -40.0390625 30.1875 C-40.75160357 22.22105721 -40.30157919 15.11559051 -36.0390625 8.1875 C-26.90802565 -2.55125891 -12.86088884 -6.68580503 0 0 Z " fill="#FDFDFD" transform="translate(213.0390625,175.8125)"/>
</svg>
