<?xml version="1.0" encoding="UTF-8"?>
<svg version="1.1" xmlns="http://www.w3.org/2000/svg" width="400" height="400">
<path d="M0 0 C0.51256348 0.43425293 1.02512695 0.86850586 1.55322266 1.31591797 C13.18949715 11.28414435 22.49596554 22.59561586 30 36 C30.33773437 36.60295898 30.67546875 37.20591797 31.0234375 37.82714844 C48.80727748 70.06871548 51.4016598 107.00163235 41.3125 142.125 C32.05040173 172.52091217 11.63155964 198.00712469 -15 215 C-16.06605469 215.68964844 -17.13210938 216.37929688 -18.23046875 217.08984375 C-35.2759908 227.50100083 -56.98496789 234.36711361 -77 235 C-78.94712891 235.07734375 -78.94712891 235.07734375 -80.93359375 235.15625 C-115.21067548 236.08380184 -146.94303163 225.25429305 -173 203 C-173.80824219 202.32582031 -174.61648437 201.65164063 -175.44921875 200.95703125 C-186.39602972 191.52249558 -194.98232265 180.62317322 -202 168 C-202.50442627 167.10571289 -202.50442627 167.10571289 -203.01904297 166.19335938 C-219.29442043 136.99094421 -224.01912166 100.75015845 -215.29980469 68.40234375 C-204.91010926 32.48928332 -182.78814622 3.25565369 -150.16015625 -15.22265625 C-102.21434621 -41.08896268 -41.57304054 -35.22683254 0 0 Z M-83 19 C-83.08993128 21.49121722 -83.11490788 23.95449047 -83.09765625 26.44580078 C-83.09622997 27.22960365 -83.0948037 28.01340652 -83.0933342 28.820961 C-83.08757387 31.44577793 -83.07490283 34.07051924 -83.0625 36.6953125 C-83.05757733 38.54071924 -83.05321307 40.38612755 -83.04937744 42.23153687 C-83.04077103 46.15770366 -83.02981013 50.0838538 -83.01721191 54.01000977 C-82.98652596 64.12383761 -82.9848119 74.23769499 -82.984375 84.3515625 C-82.98431206 85.34457115 -82.98424911 86.3375798 -82.98418427 87.36067963 C-82.98553607 118.49972225 -82.98553607 118.49972225 -83.20751953 132.61712646 C-83.23558191 134.52153758 -83.25686904 136.42606198 -83.27099609 138.33062744 C-83.29176265 140.89823949 -83.33711844 143.46414104 -83.390625 146.03125 C-83.39185364 146.73865326 -83.39308228 147.44605652 -83.39434814 148.17489624 C-83.60827833 155.3315057 -86.96726609 161.96726609 -92 167 C-100.29509291 172.41250979 -107.10623004 173.8305881 -117 173 C-125.22127747 171.2568065 -130.27523371 166.80955525 -135 160 C-139.08191974 153.16931275 -139.15941169 144.85158584 -137.34375 137.25390625 C-134.68163881 129.71508276 -130.12842328 124.55117882 -123.1875 120.625 C-117.08666128 117.84757537 -110.5866394 118 -104 118 C-104 108.1 -104 98.2 -104 88 C-122.29585753 87.52683127 -136.51031875 90.38969288 -150.875 102.75 C-161.71196673 113.19318161 -168.9630549 127.64198274 -169.29248047 142.80297852 C-169.42642491 160.42974034 -164.66153364 174.74312983 -152.34765625 187.71484375 C-140.89620024 198.86143571 -127.09384292 204.76718656 -111 205.375 C-96.38529637 204.75613633 -80.42061675 199.35211671 -69.73046875 188.96875 C-54.0589009 171.13924617 -51.81614144 154.1401787 -51.90234375 131.171875 C-51.90421398 129.68686979 -51.90563502 128.20186396 -51.90663147 126.71685791 C-51.91040909 122.85034413 -51.92019743 118.98386925 -51.93133545 115.11737061 C-51.94165313 111.15507534 -51.94615105 107.19277364 -51.95117188 103.23046875 C-51.96182507 95.48696163 -51.97884267 87.74348631 -52 80 C-50.40960471 80.78925418 -48.81989368 81.57988726 -47.23046875 82.37109375 C-46.34512451 82.81122803 -45.45978027 83.2513623 -44.54760742 83.70483398 C-42.43715618 84.77775625 -40.37222624 85.8967447 -38.3125 87.0625 C-29.19809039 91.58280436 -18.14080776 94.22250845 -8 93 C-6.69338505 91.91891551 -6.69338505 91.91891551 -6.88647461 89.31616211 C-6.89171143 88.14835205 -6.89694824 86.98054199 -6.90234375 85.77734375 C-6.90556641 84.51728516 -6.90878906 83.25722656 -6.91210938 81.95898438 C-6.92046597 80.61848891 -6.92893093 79.27799412 -6.9375 77.9375 C-6.9425134 76.59310058 -6.94707658 75.2486994 -6.95117188 73.90429688 C-6.96300512 70.60282059 -6.97949029 67.30143197 -7 64 C-8.18335938 63.70867187 -9.36671875 63.41734375 -10.5859375 63.1171875 C-19.52916993 60.83123219 -27.46768672 58.55956456 -35 53 C-36.0725 52.2575 -37.145 51.515 -38.25 50.75 C-45.97231838 43.02768162 -50.02692177 33.07027843 -51.1796875 22.35546875 C-51.76580596 19.80475891 -51.76580596 19.80475891 -54.18115234 18.8671875 C-57.24877615 17.92346675 -59.71707083 17.7565553 -62.921875 17.76953125 C-64.58283203 17.77243164 -64.58283203 17.77243164 -66.27734375 17.77539062 C-67.42332031 17.78763672 -68.56929688 17.79988281 -69.75 17.8125 C-70.91144531 17.81314453 -72.07289063 17.81378906 -73.26953125 17.81445312 C-78.49475625 17.33840452 -78.49475625 17.33840452 -83 19 Z " fill="#FDFDFD" transform="translate(286,98)"/>
<path d="M0 0 C0.70411514 -0.00570007 1.40823029 -0.01140015 2.13368225 -0.01727295 C3.62580863 -0.02673463 5.11795601 -0.03326156 6.61010742 -0.03710938 C8.89734175 -0.04682059 11.18367974 -0.07783325 13.47070312 -0.109375 C14.91796339 -0.11590425 16.36523011 -0.12115503 17.8125 -0.125 C18.49900131 -0.1373468 19.18550262 -0.1496936 19.89280701 -0.16241455 C21.82397461 -0.15332031 21.82397461 -0.15332031 24.97265625 0.203125 C27.25328453 3.62406742 27.19190632 4.88499722 27.09765625 8.890625 C27.07960937 9.88449219 27.0615625 10.87835938 27.04296875 11.90234375 C27.01976562 12.66160156 26.9965625 13.42085937 26.97265625 14.203125 C27.63265625 14.533125 28.29265625 14.863125 28.97265625 15.203125 C29.31296875 16.688125 29.31296875 16.688125 29.66015625 18.203125 C31.79512452 26.27959412 39.15879205 33.67184881 45.97265625 38.203125 C53.93366172 42.09586049 61.12533726 43.59452155 69.97265625 45.203125 C69.97265625 56.093125 69.97265625 66.983125 69.97265625 78.203125 C57.67265625 78.203125 57.67265625 78.203125 52.97265625 77.203125 C52.64265625 76.543125 52.31265625 75.883125 51.97265625 75.203125 C57.25265625 75.203125 62.53265625 75.203125 67.97265625 75.203125 C68.30265625 65.963125 68.63265625 56.723125 68.97265625 47.203125 C66.55953125 46.831875 64.14640625 46.460625 61.66015625 46.078125 C50.01066408 44.02629977 39.24456822 38.63172823 32.25390625 28.78125 C27.14608375 20.51859596 24.44334902 12.77127912 22.97265625 3.203125 C19.62879227 2.19227072 16.59784445 2.08769037 13.11328125 2.10546875 C11.99824219 2.10869141 10.88320312 2.11191406 9.734375 2.11523438 C7.99607422 2.12780273 7.99607422 2.12780273 6.22265625 2.140625 C5.04832031 2.14513672 3.87398437 2.14964844 2.6640625 2.15429688 C-0.23312447 2.16607406 -3.13020829 2.18252174 -6.02734375 2.203125 C-6.02512314 3.20122696 -6.02290253 4.19932892 -6.02061462 5.22767639 C-5.83847771 89.77315282 -5.83847771 89.77315282 -6.290802 115.93112183 C-6.32326514 117.84879016 -6.35090312 119.76654678 -6.37350464 121.68435669 C-6.40595652 124.26668153 -6.45727051 126.84783601 -6.515625 129.4296875 C-6.52201996 130.14741837 -6.52841492 130.86514923 -6.53500366 131.60462952 C-6.67131343 136.14936352 -7.74202713 139.28923999 -10.02734375 143.203125 C-11.02734375 141.203125 -11.02734375 141.203125 -10.10877991 137.89122009 C-8.54866197 132.0438872 -8.7273092 126.20986387 -8.72436523 120.19360352 C-8.7159259 118.90657028 -8.70748657 117.61953705 -8.6987915 116.29350281 C-8.68060823 113.50965915 -8.66850955 110.72588138 -8.66125298 107.94198799 C-8.64971796 103.54295264 -8.62424517 99.14406362 -8.59693909 94.74510193 C-8.5554055 87.79442923 -8.52292996 80.84374942 -8.49446493 73.89301199 C-8.4433277 61.42335326 -8.3814245 48.95375474 -8.30912453 36.48420089 C-8.28416975 32.10734636 -8.26475462 27.7305116 -8.24974239 23.35361207 C-8.24201457 21.29233334 -8.23208961 19.23107927 -8.22119141 17.16981506 C-8.20798246 14.65175052 -8.19841072 12.13366346 -8.19300842 9.61557007 C-8.18610992 8.51508835 -8.17921143 7.41460663 -8.17210388 6.28077698 C-8.16824897 5.31867593 -8.16439405 4.35657488 -8.16042233 3.36531925 C-7.87205177 -1.31998156 -3.72516476 0.02299333 0 0 Z " fill="#DCCACF" transform="translate(210.02734375,114.796875)"/>
<path d="M0 0 C1.32 0 2.64 0 4 0 C4 10.89 4 21.78 4 33 C0.7 32.67 -2.6 32.34 -6 32 C-6 31.34 -6 30.68 -6 30 C-3.36 30.33 -0.72 30.66 2 31 C2 21.1 2 11.2 2 1 C1.34 0.67 0.68 0.34 0 0 Z " fill="#DAD2D4" transform="translate(180,185)"/>
<path d="M0 0 C3.95819611 -0.08678303 7.91614934 -0.14031733 11.875 -0.1875 C13.00292969 -0.21263672 14.13085938 -0.23777344 15.29296875 -0.26367188 C16.36933594 -0.27333984 17.44570312 -0.28300781 18.5546875 -0.29296875 C20.04718018 -0.31653442 20.04718018 -0.31653442 21.56982422 -0.34057617 C22.37178223 -0.22818604 23.17374023 -0.1157959 24 0 C26.28062828 3.42094242 26.21925007 4.68187222 26.125 8.6875 C26.10695312 9.68136719 26.08890625 10.67523438 26.0703125 11.69921875 C26.04710937 12.45847656 26.02390625 13.21773437 26 14 C26.66 14.33 27.32 14.66 28 15 C28 15.99 28 16.98 28 18 C27.01 17.67 26.02 17.34 25 17 C24.05078125 13.83984375 24.05078125 13.83984375 23.3125 9.9375 C23.06113281 8.64714844 22.80976563 7.35679688 22.55078125 6.02734375 C22.36902344 5.02832031 22.18726563 4.02929688 22 3 C19.14839609 2.18565857 16.63373869 1.88118758 13.671875 1.90234375 C12.47304687 1.90717773 12.47304687 1.90717773 11.25 1.91210938 C10.0125 1.92467773 10.0125 1.92467773 8.75 1.9375 C7.90953125 1.94201172 7.0690625 1.94652344 6.203125 1.95117188 C4.13538599 1.96292039 2.06768376 1.98085478 0 2 C0 1.34 0 0.68 0 0 Z " fill="#DED9DA" transform="translate(211,115)"/>
<path d="M0 0 C0.66 0 1.32 0 2 0 C3.12733353 1.64489562 4.17653603 3.34362992 5.1875 5.0625 C10.79142349 14.04492057 16.28480604 18.75815475 26 23 C26 23.66 26 24.32 26 25 C16.29761068 22.17489252 8.10451575 15.73323613 3 7 C1.85092161 4.68868584 0.90820906 2.42189083 0 0 Z " fill="#C5B9BB" transform="translate(237,133)"/>
<path d="M0 0 C0.71875 1.609375 0.71875 1.609375 1 4 C-3.36114869 13.15841225 -9.71486313 22.05631485 -18 28 C-18.66 27.67 -19.32 27.34 -20 27 C-19.0479279 25.99403703 -18.08812654 24.99538437 -17.125 24 C-16.59132812 23.443125 -16.05765625 22.88625 -15.5078125 22.3125 C-14 21 -14 21 -12 21 C-11.72929687 20.42765625 -11.45859375 19.8553125 -11.1796875 19.265625 C-9.97595627 16.95382331 -8.61072985 14.89006684 -7.125 12.75 C-4.34568104 8.64233007 -2.11829522 4.48100912 0 0 Z " fill="#CCC7C7" transform="translate(230,264)"/>
<path d="M0 0 C0.33 0.99 0.66 1.98 1 3 C-0.0625 4.75 -0.0625 4.75 -2 7 C-2.76183594 7.8971875 -2.76183594 7.8971875 -3.5390625 8.8125 C-5.01705549 10.54966712 -6.5049324 12.27752729 -8 14 C-8.66 13.67 -9.32 13.34 -10 13 C-9.52949219 12.39671875 -9.05898437 11.7934375 -8.57421875 11.171875 C-7.64029297 9.97304687 -7.64029297 9.97304687 -6.6875 8.75 C-6.07261719 7.96109375 -5.45773438 7.1721875 -4.82421875 6.359375 C-3.19620982 4.2537703 -1.59064137 2.13390657 0 0 Z " fill="#EFECEA" transform="translate(101,110)"/>
<path d="M0 0 C0.66 0 1.32 0 2 0 C3.69140625 2.3359375 3.69140625 2.3359375 5.5625 5.375 C6.18253906 6.37273437 6.80257812 7.37046875 7.44140625 8.3984375 C8.34335784 9.90395068 9.21513229 11.43026458 10 13 C9.01 13 8.02 13 7 13 C5.4296875 10.91796875 5.4296875 10.91796875 3.875 8.1875 C3.35679687 7.29417969 2.83859375 6.40085938 2.3046875 5.48046875 C1 3 1 3 0 0 Z " fill="#CBC6C7" transform="translate(237,133)"/>
<path d="M0 0 C0.66 0.33 1.32 0.66 2 1 C-1.96 4.465 -1.96 4.465 -6 8 C-6.66 7.67 -7.32 7.34 -8 7 C-5.36 4.69 -2.72 2.38 0 0 Z " fill="#D7D4D0" transform="translate(218,284)"/>
</svg>
