<?xml version="1.0" encoding="UTF-8"?>
<svg version="1.1" xmlns="http://www.w3.org/2000/svg" width="400" height="400">
<path d="M0 0 C0.82886719 0.69609375 1.65773438 1.3921875 2.51171875 2.109375 C13.43741927 11.50856477 22.00792162 22.40851593 29 35 C29.33628418 35.60150879 29.67256836 36.20301758 30.01904297 36.82275391 C47.43075458 68.38301465 50.58931962 105.15496828 40.75 139.6875 C35.32902326 157.47456503 26.90310906 174.44864862 14 188 C12.89339917 189.31044835 11.78930706 190.62301855 10.6875 191.9375 C2.92825377 200.746223 -6.16480045 207.67716874 -16 214 C-17.60294922 215.03833984 -17.60294922 215.03833984 -19.23828125 216.09765625 C-36.28275528 226.49258225 -57.99013894 233.3070178 -78 234 C-79.91232422 234.07734375 -79.91232422 234.07734375 -81.86328125 234.15625 C-99.487985 234.63361049 -116.44267851 232.02397352 -133 226 C-134.86011719 225.35417969 -134.86011719 225.35417969 -136.7578125 224.6953125 C-150.6171081 219.57402791 -162.84515567 211.64846364 -174 202 C-174.80566406 201.32710937 -175.61132812 200.65421875 -176.44140625 199.9609375 C-187.39504729 190.53292096 -195.98244493 179.62295327 -203 167 C-203.50442627 166.10571289 -203.50442627 166.10571289 -204.01904297 165.19335938 C-220.29442043 135.99094421 -225.01912166 99.75015845 -216.29980469 67.40234375 C-210.3535166 46.8483819 -200.82305829 26.72775199 -186 11 C-185.34 11 -184.68 11 -184 11 C-183.76539063 10.43410156 -183.53078125 9.86820313 -183.2890625 9.28515625 C-172.16180192 -10.44044205 -141.45271651 -22.11238829 -121 -28 C-79.23798069 -39.4711126 -32.42434869 -28.4895967 0 0 Z M-164 21 C-160.5021019 27.85005044 -156.63285236 34.11868848 -152.03076172 40.28027344 C-148.766171 44.65242307 -145.67340215 49.14283445 -142.5625 53.625 C-141.88219727 54.60428467 -141.20189453 55.58356934 -140.50097656 56.5925293 C-128.47812642 73.93338979 -116.65796104 91.41197785 -105 109 C-109.16427655 118.16559361 -117.29826948 125.64147556 -124 133 C-127.91068183 137.36678727 -131.68341547 141.82119417 -135.375 146.375 C-138.32735653 150.00789973 -141.34728916 153.53970762 -144.5 157 C-151.13746343 164.29888898 -157.40130441 171.87286124 -163 180 C-159.14563881 181.9271806 -156.03642622 182.28112658 -152 181 C-147.45430559 177.12349933 -143.75243014 172.63134296 -140 168 C-139.18015625 167.01128906 -138.3603125 166.02257812 -137.515625 165.00390625 C-136.02907184 163.19697525 -134.55213652 161.38207953 -133.0859375 159.55859375 C-129.85138587 155.59111937 -126.4224267 151.80505825 -123 148 C-118.27176847 142.67381882 -113.66364236 137.25040338 -109.07177734 131.80688477 C-105.43009854 127.49450372 -101.74124839 123.22646149 -98 119 C-91.34609861 128.23752037 -84.82715817 137.55813557 -78.39990234 146.95458984 C-76.06311534 150.36889077 -73.7190389 153.77817547 -71.375 157.1875 C-70.69655029 158.17472046 -70.69655029 158.17472046 -70.00439453 159.18188477 C-66.27535013 164.60576571 -62.52959067 170.0179317 -58.77734375 175.42578125 C-57.50208181 177.27280899 -56.24502759 179.13245862 -55 181 C-52.98662635 181.43661626 -52.98662635 181.43661626 -50.64208984 181.34057617 C-49.74130707 181.34034958 -48.84052429 181.34012299 -47.91244507 181.33988953 C-46.45144882 181.31666374 -46.45144882 181.31666374 -44.9609375 181.29296875 C-43.46694931 181.28660149 -43.46694931 181.28660149 -41.94277954 181.28010559 C-38.75324775 181.2632768 -35.56434167 181.22561676 -32.375 181.1875 C-30.21615494 181.1724586 -28.0573 181.15876925 -25.8984375 181.14648438 C-20.59874388 181.11335967 -15.29941663 181.06311896 -10 181 C-11.15835309 177.90984804 -12.35287639 175.23605212 -14.29296875 172.56640625 C-14.7506665 171.92888428 -15.20836426 171.2913623 -15.67993164 170.63452148 C-16.1774292 169.95075439 -16.67492676 169.2669873 -17.1875 168.5625 C-22.07222414 161.74882436 -26.85185285 154.87268608 -31.5625 147.9375 C-32.2028418 146.99583984 -32.84318359 146.05417969 -33.50292969 145.08398438 C-34.75899411 143.23679306 -36.01485947 141.38946636 -37.27050781 139.54199219 C-39.6510929 136.04302946 -42.04077539 132.5504237 -44.4375 129.0625 C-44.85862061 128.44947021 -45.27974121 127.83644043 -45.71362305 127.20483398 C-48.47968944 123.186807 -51.26566031 119.18299185 -54.05859375 115.18359375 C-55.12799194 113.65109985 -55.12799194 113.65109985 -56.21899414 112.08764648 C-57.6213068 110.07937469 -59.02534884 108.07230899 -60.43139648 106.06665039 C-61.71435551 104.22955243 -62.98988015 102.38723343 -64.25683594 100.5390625 C-65.37096439 98.91624234 -66.50287581 97.30539723 -67.65722656 95.7109375 C-71.09424317 90.74713258 -71.09424317 90.74713258 -70.67578125 87.4296875 C-68.3901068 84.11572595 -65.8763961 81.11792982 -63.1875 78.125 C-62.00504382 76.78530143 -60.82275687 75.44545349 -59.640625 74.10546875 C-59.03541016 73.42403809 -58.43019531 72.74260742 -57.80664062 72.04052734 C-54.99178152 68.8612581 -52.21500102 65.64939292 -49.4375 62.4375 C-48.89955811 61.81697754 -48.36161621 61.19645508 -47.80737305 60.55712891 C-43.69921244 55.81708613 -39.61220998 51.05921917 -35.5390625 46.2890625 C-32.86712071 43.16352846 -30.17756341 40.05508787 -27.46484375 36.96484375 C-26.87638672 36.29259766 -26.28792969 35.62035156 -25.68164062 34.92773438 C-24.54947128 33.63581885 -23.41422715 32.34658906 -22.27539062 31.06054688 C-19.4753135 27.86095937 -17.05065029 24.75361246 -15 21 C-19.18442306 20.2882167 -22.82868573 20.13118188 -27 21 C-31.0653822 24.09743406 -33.93895556 27.9355006 -37 32 C-38.47272694 33.8177364 -39.95176384 35.6303812 -41.4375 37.4375 C-42.16710937 38.34242188 -42.89671875 39.24734375 -43.6484375 40.1796875 C-46.19525383 43.23417486 -48.85347704 46.1527054 -51.5625 49.0625 C-55.60044758 53.400946 -59.36802719 57.87897291 -63.01953125 62.546875 C-65.87732127 66.0867017 -68.93979477 69.42660883 -72.01953125 72.7734375 C-74.02283417 74.94643282 -74.02283417 74.94643282 -75.63671875 77.2890625 C-76.08660156 77.85367188 -76.53648437 78.41828125 -77 79 C-77.66 79 -78.32 79 -79 79 C-80.24584961 77.50976562 -80.24584961 77.50976562 -81.65234375 75.40625 C-82.17586426 74.63128174 -82.69938477 73.85631348 -83.23876953 73.05786133 C-83.79935059 72.21376709 -84.35993164 71.36967285 -84.9375 70.5 C-86.12086 68.7433321 -87.30445738 66.98682408 -88.48828125 65.23046875 C-89.0807666 64.34665527 -89.67325195 63.4628418 -90.28369141 62.55224609 C-92.70371274 58.95354012 -95.16199382 55.38185926 -97.625 51.8125 C-98.51581146 50.5183575 -99.40643647 49.22408663 -100.296875 47.9296875 C-100.95719727 46.9701416 -100.95719727 46.9701416 -101.63085938 45.99121094 C-103.07314332 43.89362395 -104.51333551 41.79461238 -105.953125 39.6953125 C-106.68668213 38.62639771 -106.68668213 38.62639771 -107.43505859 37.53588867 C-108.3603775 36.18744582 -109.28522233 34.83867746 -110.20947266 33.48950195 C-110.63276855 32.87292725 -111.05606445 32.25635254 -111.4921875 31.62109375 C-111.85683105 31.0892749 -112.22147461 30.55745605 -112.59716797 30.00952148 C-113.06010254 29.34637939 -113.52303711 28.6832373 -114 28 C-114.44864662 27.12874229 -114.44864662 27.12874229 -114.90635681 26.23988342 C-116.60172924 23.28775322 -117.80721377 21.33400648 -121.18395996 20.38844299 C-123.92579037 20.18876882 -126.58483006 20.21285673 -129.33203125 20.31640625 C-130.32377853 20.32631088 -131.31552582 20.33621552 -132.33732605 20.34642029 C-135.4972376 20.38552914 -138.65364317 20.4733455 -141.8125 20.5625 C-143.95763203 20.59761834 -146.10281866 20.62955643 -148.24804688 20.65820312 C-153.49988908 20.73527799 -158.74969411 20.85232842 -164 21 Z " fill="#FAFAFA" transform="translate(287,99)"/>
<path d="M0 0 C20.29014543 -1.94713502 20.29014543 -1.94713502 25.88671875 2.07421875 C27.51761515 4.6673794 28.83066611 7.25278218 30.04785156 10.06103516 C31.92030869 13.87412605 34.56320696 17.20483514 37.0625 20.625 C38.10112708 22.08569992 39.13764332 23.54790343 40.171875 25.01171875 C40.65978516 25.69927246 41.14769531 26.38682617 41.65039062 27.09521484 C44.9759123 31.78872426 48.26157391 36.5102943 51.5546875 41.2265625 C55.20846295 46.45373407 58.88193238 51.66668339 62.5625 56.875 C68.80369973 65.70906196 75.00649851 74.56974425 81.20458984 83.43408203 C83.00567521 86.00811075 84.80911771 88.5804718 86.61328125 91.15234375 C92.4261385 99.441282 98.21380525 107.7451805 103.93359375 116.09863281 C109.20928482 123.78842359 114.6056037 131.39324222 120 139 C119.67 139.66 119.34 140.32 119 141 C102.05409368 143.8119005 102.05409368 143.8119005 95.98730469 139.60400391 C92.10982993 135.52437021 89.40392222 130.63568711 86.63378906 125.76806641 C83.73459559 120.85607363 80.36219933 116.2728499 77.0625 111.625 C75.69931721 109.66450032 74.33863095 107.70226235 72.98046875 105.73828125 C69.29369781 100.41909056 65.58880054 95.11284451 61.875 89.8125 C61.30531494 88.9992627 60.73562988 88.18602539 60.14868164 87.34814453 C59.00514526 85.71591323 57.86150962 84.08375146 56.71777344 82.45166016 C53.8103791 78.30213572 50.90531999 74.15097694 48 70 C46.83334425 68.33332569 45.66667759 66.66665902 44.5 65 C42.16666667 61.66666667 39.83333333 58.33333333 37.5 55 C36.92241943 54.17491943 36.34483887 53.34983887 35.74975586 52.49975586 C34.58377189 50.83399475 33.4179189 49.16814196 32.25219727 47.50219727 C29.32615547 43.32091173 26.39781516 39.14127198 23.46484375 34.96484375 C17.48084546 26.43975206 11.52374918 17.89685856 5.625 9.3125 C4.77603149 8.08164673 4.77603149 8.08164673 3.90991211 6.82592773 C3.13852905 5.69973022 3.13852905 5.69973022 2.3515625 4.55078125 C1.89604004 3.88731689 1.44051758 3.22385254 0.97119141 2.5402832 C0 1 0 1 0 0 Z " fill="#EBEBEB" transform="translate(140,130)"/>
<path d="M0 0 C0.33 0.99 0.66 1.98 1 3 C-0.98 4.98 -2.96 6.96 -5 9 C-5.66 8.67 -6.32 8.34 -7 8 C-5.625 6 -5.625 6 -4 4 C-3.34 4 -2.68 4 -2 4 C-1.34 2.68 -0.68 1.36 0 0 Z " fill="#979797" transform="translate(105,106)"/>
<path d="M0 0 C0.66 0.99 1.32 1.98 2 3 C-0.97 5.475 -0.97 5.475 -4 8 C-4.66 7.67 -5.32 7.34 -6 7 C-4.02 4.69 -2.04 2.38 0 0 Z " fill="#ACACAC" transform="translate(224,176)"/>
<path d="M0 0 C0.33 0.99 0.66 1.98 1 3 C-0.65 4.65 -2.3 6.3 -4 8 C-4.66 7.67 -5.32 7.34 -6 7 C-4.02 4.69 -2.04 2.38 0 0 Z " fill="#9B9B9B" transform="translate(248,148)"/>
</svg>
