<?xml version="1.0" encoding="UTF-8"?>
<svg version="1.1" xmlns="http://www.w3.org/2000/svg" width="400" height="400">
<path d="M0 0 C0.82886719 0.69609375 1.65773438 1.3921875 2.51171875 2.109375 C13.43741927 11.50856477 22.00792162 22.40851593 29 35 C29.33628418 35.60150879 29.67256836 36.20301758 30.01904297 36.82275391 C47.66254892 68.8031623 50.2775497 105.44876981 40.41015625 140.35546875 C35.72880242 156.16276429 28.47378912 170.26160782 18 183 C16.15479596 185.4452704 14.31377787 187.89345525 12.48046875 190.34765625 C11.99191406 190.89292969 11.50335938 191.43820312 11 192 C10.34 192 9.68 192 9 192 C8.73832031 192.59554687 8.47664062 193.19109375 8.20703125 193.8046875 C6.04064618 197.74484416 2.44642685 200.19140331 -1 203 C-1.94230469 203.77859375 -2.88460937 204.5571875 -3.85546875 205.359375 C-24.4119043 221.99051023 -51.34235885 233.19642759 -78 234 C-78.6398584 234.02046387 -79.2797168 234.04092773 -79.93896484 234.06201172 C-115.06291645 235.03388415 -147.1316337 224.94727801 -174 202 C-174.80824219 201.32582031 -175.61648437 200.65164063 -176.44921875 199.95703125 C-187.39602972 190.52249558 -195.98232265 179.62317322 -203 167 C-203.50442627 166.10571289 -203.50442627 166.10571289 -204.01904297 165.19335938 C-221.12274227 134.50471149 -224.36688824 98.17638883 -215.35742188 64.44433594 C-210.67744232 48.019263 -203.22196933 31.07029369 -192 18 C-191.34 18 -190.68 18 -190 18 C-189.71125 17.401875 -189.4225 16.80375 -189.125 16.1875 C-188 14 -188 14 -186 11 C-185.34 11 -184.68 11 -184 11 C-183.7525 10.38125 -183.505 9.7625 -183.25 9.125 C-181.79371361 6.64931313 -180.62187494 6.04874998 -178 5 C-178 4.34 -178 3.68 -178 3 C-175.93423418 1.18152293 -173.86600612 -0.51319452 -171.6875 -2.1875 C-170.7284375 -2.9295166 -170.7284375 -2.9295166 -169.75 -3.68652344 C-156.98828605 -13.44885252 -143.46627109 -20.70013364 -128.25 -25.8125 C-127.38713379 -26.10253906 -126.52426758 -26.39257812 -125.63525391 -26.69140625 C-82.97815464 -40.50588789 -33.44238502 -29.38409252 0 0 Z M-194.5625 81.25 C-197.73240819 87.3141722 -197.18302747 94.19303418 -197.1875 100.875 C-197.19974609 101.83019531 -197.21199219 102.78539062 -197.22460938 103.76953125 C-197.31980922 113.79847375 -197.31980922 113.79847375 -192.875 122.4375 C-186.960098 125.65212065 -179.64394941 125.15855061 -173.0390625 125.16796875 C-172.20845306 125.17129715 -171.37784363 125.17462555 -170.52206421 125.17805481 C-168.77578276 125.18308646 -167.02949182 125.18546431 -165.28320312 125.18530273 C-162.63915887 125.1874883 -159.99553316 125.20568173 -157.3515625 125.22460938 C-143.66145178 126.04694496 -143.66145178 126.04694496 -131.32568359 121.67822266 C-126.93606133 116.12126807 -127.69171462 107.14517527 -127.75 100.4375 C-127.74226563 99.54353516 -127.73453125 98.64957031 -127.7265625 97.72851562 C-127.74089635 87.95985977 -127.74089635 87.95985977 -132.125 79.5625 C-138.039902 76.34787935 -145.35605059 76.84144939 -151.9609375 76.83203125 C-152.79154694 76.82870285 -153.62215637 76.82537445 -154.47793579 76.82194519 C-156.22421724 76.81691354 -157.97050818 76.81453569 -159.71679688 76.81469727 C-162.36084113 76.8125117 -165.00446684 76.79431827 -167.6484375 76.77539062 C-181.98922277 75.98653839 -181.98922277 75.98653839 -194.5625 81.25 Z M-18 78 C-18.02464513 84.1055471 -18.04283371 90.21106551 -18.05493164 96.31665039 C-18.05997288 98.39543156 -18.06680574 100.47420916 -18.07543945 102.55297852 C-18.08751422 105.53402586 -18.09323024 108.51502649 -18.09765625 111.49609375 C-18.10281754 112.43150497 -18.10797882 113.3669162 -18.11329651 114.33067322 C-18.11337204 115.19149002 -18.11344757 116.05230682 -18.11352539 116.93920898 C-18.115746 117.70087875 -18.11796661 118.46254852 -18.12025452 119.24729919 C-18.19090955 121.02810605 -18.19090955 121.02810605 -17 122 C-15.33382885 122.04063832 -13.66611905 122.042721 -12 122 C-12 121.01 -12 120.02 -12 119 C-11.62875 119.495 -11.2575 119.99 -10.875 120.5 C-9.00363206 122.26514017 -9.00363206 122.26514017 -6 122.375 C-3.05068673 122.24056023 -3.05068673 122.24056023 -1.1875 120.75 C1.76100035 116.40484159 1.18345194 111.10233171 1.1875 106.0625 C1.20586914 104.86463867 1.20586914 104.86463867 1.22460938 103.64257812 C1.23539269 99.30409295 1.02015379 95.9524748 -1 92 C-3.31 91.67 -5.62 91.34 -8 91 C-8.33 91.66 -8.66 92.32 -9 93 C-8.53078125 93.87269531 -8.0615625 94.74539062 -7.578125 95.64453125 C-5.71541348 99.60509856 -5.66337049 102.33436691 -5.75 106.6875 C-5.76546875 107.99074219 -5.7809375 109.29398438 -5.796875 110.63671875 C-6 114 -6 114 -7 117 C-8.32 117 -9.64 117 -11 117 C-10.99476318 116.42258057 -10.98952637 115.84516113 -10.98413086 115.25024414 C-10.88662872 102.78848393 -11.07685593 90.42947554 -12 78 C-13.98 78 -15.96 78 -18 78 Z M-119 80 C-120.67776955 83.35553911 -118.75893691 86.71033927 -117.6875 90.125 C-115.11965157 98.46502055 -112.84379117 106.24923147 -112.375 115 C-112.33632812 115.67933594 -112.29765625 116.35867187 -112.2578125 117.05859375 C-112.16503704 118.70535817 -112.08151002 120.35263955 -112 122 C-110.35 122 -108.7 122 -107 122 C-105.68738173 119.37476346 -105.81393204 117.2493357 -105.6875 114.3125 C-105.0620694 105.22358114 -102.47207001 96.93938475 -99.87890625 88.23828125 C-99.08104679 85.2986124 -98.81703433 83.01893353 -99 80 C-100.65 80.33 -102.3 80.66 -104 81 C-106.26475565 86.82365738 -107.06548814 92.8560816 -108 99 C-108.66 99 -109.32 99 -110 99 C-110.10957031 98.21496094 -110.21914062 97.42992187 -110.33203125 96.62109375 C-111.2380192 90.61800285 -112.28076713 85.43846574 -115 80 C-116.32 80 -117.64 80 -119 80 Z M-59 80 C-58.67 81.65 -58.34 83.3 -58 85 C-56.35 85 -54.7 85 -53 85 C-53 96.88 -53 108.76 -53 121 C-51.35 121.33 -49.7 121.66 -48 122 C-45.99496491 119.99496491 -46.74411337 115.99974556 -46.68359375 113.24609375 C-46.66281265 112.47064713 -46.64203156 111.6952005 -46.62062073 110.89625549 C-46.55504198 108.41009692 -46.49620201 105.92382955 -46.4375 103.4375 C-46.39432267 101.75584796 -46.35070864 100.07420706 -46.30664062 98.39257812 C-46.19935221 94.26183129 -46.09810868 90.13097464 -46 86 C-44.02 85.34 -42.04 84.68 -40 84 C-40.33 82.68 -40.66 81.36 -41 80 C-46.94 80 -52.88 80 -59 80 Z M-97 93 C-99.33881028 97.42523096 -99.33370041 101.55716517 -99.3125 106.4375 C-99.32861328 107.17548828 -99.34472656 107.91347656 -99.36132812 108.67382812 C-99.36563905 113.52362339 -98.58827997 116.76046294 -96 121 C-94.85086031 122.36607015 -94.85086031 122.36607015 -91.75 122.25 C-87.79596338 121.98639756 -86.09629244 121.38856845 -83 119 C-80.30990355 114.96485533 -80.6685807 111.92110768 -80.6875 107.1875 C-80.67138672 106.39279297 -80.65527344 105.59808594 -80.63867188 104.77929688 C-80.6345418 99.7860326 -81.21569627 96.31533206 -84 92 C-88.05828356 89.97085822 -93.38146393 90.18558305 -97 93 Z M-76 91 C-78.10668827 95.21337655 -77.2293798 100.74576533 -77.25 105.375 C-77.270625 106.52484375 -77.29125 107.6746875 -77.3125 108.859375 C-77.31765625 109.96539062 -77.3228125 111.07140625 -77.328125 112.2109375 C-77.3374707 113.22462402 -77.34681641 114.23831055 -77.35644531 115.28271484 C-76.94394395 118.42733137 -76.27203487 119.80257507 -74 122 C-70.37436186 122.33380814 -70.37436186 122.33380814 -67 122 C-67 120.68 -67 119.36 -67 118 C-67.99 118 -68.98 118 -70 118 C-70.33 109.09 -70.66 100.18 -71 91 C-72.65 91 -74.3 91 -76 91 Z M-64 91 C-65.31361698 93.62723396 -65.21253909 95.72610561 -65.31640625 98.6640625 C-65.35830078 99.78554687 -65.40019531 100.90703125 -65.44335938 102.0625 C-65.48267578 103.238125 -65.52199219 104.41375 -65.5625 105.625 C-65.60568359 106.80835938 -65.64886719 107.99171875 -65.69335938 109.2109375 C-65.79967426 112.14050328 -65.90170642 115.07015588 -66 118 C-65.34 118 -64.68 118 -64 118 C-64 118.99 -64 119.98 -64 121 C-62.35 121.33 -60.7 121.66 -59 122 C-59 111.77 -59 101.54 -59 91 C-60.65 91 -62.3 91 -64 91 Z M-40 91 C-42.58058363 93.58058363 -41.23460363 100.78196736 -41.25 104.25 C-41.270625 105.39597656 -41.29125 106.54195312 -41.3125 107.72265625 C-41.31765625 108.82996094 -41.3228125 109.93726563 -41.328125 111.078125 C-41.3374707 112.09293945 -41.34681641 113.10775391 -41.35644531 114.15332031 C-40.93826862 117.49300542 -40.07770121 119.36204659 -38 122 C-34.45749949 122.66676878 -34.45749949 122.66676878 -31 122 C-30.34 121.01 -29.68 120.02 -29 119 C-28.34 119.99 -27.68 120.98 -27 122 C-25.35 122 -23.7 122 -22 122 C-22 111.77 -22 101.54 -22 91 C-23.98 91 -25.96 91 -28 91 C-29.74506615 92.74506615 -29.23282784 95.19039143 -29.31640625 97.56640625 C-29.35830078 98.69111328 -29.40019531 99.81582031 -29.44335938 100.97460938 C-29.48267578 102.15861328 -29.52199219 103.34261719 -29.5625 104.5625 C-29.60568359 105.75037109 -29.64886719 106.93824219 -29.69335938 108.16210938 C-29.79983546 111.10794784 -29.90184841 114.0538743 -30 117 C-31.32 117.33 -32.64 117.66 -34 118 C-34.33 109.09 -34.66 100.18 -35 91 C-36.65 91 -38.3 91 -40 91 Z M7 93 C4.27942098 97.47754335 4.63231749 101.84086904 4.625 106.9375 C4.60050781 107.83146484 4.57601562 108.72542969 4.55078125 109.64648438 C4.5320593 113.84956165 4.64783515 116.37463103 6.7421875 120.09375 C9.93347973 122.78812822 11.8494981 122.66038809 15.87109375 122.421875 C18.19952231 122.09953792 18.19952231 122.09953792 20.5625 120.3125 C22.23301458 117.62515045 22.34538204 116.10843835 22 113 C20.35 113 18.7 113 17 113 C16.67 114.65 16.34 116.3 16 118 C14.35 118 12.7 118 11 118 C11 115.03 11 112.06 11 109 C14.63 109 18.26 109 22 109 C22.78566473 100.44093669 22.78566473 100.44093669 19.875 92.6875 C15.42135706 90.07340523 11.28412947 89.93990752 7 93 Z " fill="#FDFDFD" transform="translate(287,99)"/>
<path d="M0 0 C3.12912467 1.25164987 5.71373125 2.30141437 8.55078125 3.9453125 C9.16630859 4.29980469 9.78183594 4.65429688 10.41601562 5.01953125 C11.35477539 5.56673828 11.35477539 5.56673828 12.3125 6.125 C12.95767578 6.49753906 13.60285156 6.87007812 14.26757812 7.25390625 C15.84675945 8.16632213 17.42361864 9.08275509 19 10 C19 10.66 19 11.32 19 12 C17.47119141 13.14501953 17.47119141 13.14501953 15.3515625 14.3828125 C14.59359375 14.82753906 13.835625 15.27226562 13.0546875 15.73046875 C12.25289062 16.19066406 11.45109375 16.65085938 10.625 17.125 C9.8309375 17.59292969 9.036875 18.06085938 8.21875 18.54296875 C2.2722531 22 2.2722531 22 0 22 C0 14.74 0 7.48 0 0 Z " fill="#F1EEEE" transform="translate(117,189)"/>
<path d="M0 0 C0.33 0 0.66 0 1 0 C1.33 4.95 1.66 9.9 2 15 C2.66 15 3.32 15 4 15 C6.76954714 19.7206529 7.38347976 23.17593874 7.3125 28.625 C7.30863281 29.91664063 7.30476563 31.20828125 7.30078125 32.5390625 C7.02910464 35.66510766 6.65904263 37.39576575 5 40 C3.35 39.67 1.7 39.34 0 39 C0 26.13 0 13.26 0 0 Z " fill="#EDE9E9" transform="translate(275,177)"/>
<path d="M0 0 C1.65 0.33 3.3 0.66 5 1 C5.22201613 3.9162118 5.42808498 6.83207744 5.625 9.75 C5.68945312 10.575 5.75390625 11.4 5.8203125 12.25 C5.871875 13.04921875 5.9234375 13.8484375 5.9765625 14.671875 C6.02893066 15.4050293 6.08129883 16.13818359 6.13525391 16.89355469 C5.97767085 19.34775441 5.22264839 20.88853213 4 23 C2.35 22.67 0.7 22.34 -1 22 C-1.02895225 18.70835171 -1.0467823 15.41673601 -1.0625 12.125 C-1.07506836 10.71927734 -1.07506836 10.71927734 -1.08789062 9.28515625 C-1.09111328 8.38925781 -1.09433594 7.49335938 -1.09765625 6.5703125 C-1.10289307 5.74289551 -1.10812988 4.91547852 -1.11352539 4.06298828 C-1 2 -1 2 0 0 Z " fill="#F0EDEC" transform="translate(195,194)"/>
<path d="M0 0 C0.33 0 0.66 0 1 0 C1.23320282 4.04068739 1.3747013 8.07964201 1.5 12.125 C1.56703125 13.26710937 1.6340625 14.40921875 1.703125 15.5859375 C1.89742737 23.94093921 1.89742737 23.94093921 -0.81640625 27.14355469 C-2.81785511 28.64464133 -4.76156554 29.88898448 -7 31 C-6 29 -5 27 -4 25 C-3.76725791 22.12089412 -3.58027243 19.25853505 -3.4375 16.375 C-3.39431641 15.57320312 -3.35113281 14.77140625 -3.30664062 13.9453125 C-3.20048543 11.9637489 -3.09973145 9.98189729 -3 8 C-2.34 9.32 -1.68 10.64 -1 12 C-0.67 8.04 -0.34 4.08 0 0 Z " fill="#EBE5E5" transform="translate(209,190)"/>
<path d="M0 0 C1.98 0.495 1.98 0.495 4 1 C4 3.97 4 6.94 4 10 C2.35 10 0.7 10 -1 10 C-1.02689216 8.52093108 -1.04634621 7.04172517 -1.0625 5.5625 C-1.07410156 4.73878906 -1.08570313 3.91507813 -1.09765625 3.06640625 C-1 1 -1 1 0 0 Z " fill="#F6F3F2" transform="translate(299,194)"/>
<path d="M0 0 C0.66 0.33 1.32 0.66 2 1 C2 1.66 2 2.32 2 3 C0.609375 4.3671875 0.609375 4.3671875 -1.25 5.875 C-3.97805828 8.1327034 -6.54236923 10.444064 -9 13 C-9 9.47967572 -8.29648649 8.5614657 -6 6 C-5.34 6 -4.68 6 -4 6 C-3.71125 5.38125 -3.4225 4.7625 -3.125 4.125 C-2 2 -2 2 0 0 Z " fill="#ECE8E8" transform="translate(107,104)"/>
<path d="" fill="#FFFFFF" transform="translate(0,0)"/>
</svg>
