<!DOCTYPE svg PUBLIC "-//W3C//DTD SVG 1.1//EN" "http://www.w3.org/Graphics/SVG/1.1/DTD/svg11.dtd">
<!-- Uploaded to: SVG Repo, www.svgrepo.com, Transformed by: SVG Repo Mixer Tools -->
<svg width="800px" height="800px" viewBox="0 0 8 8" id="meteor-icon-kit__solid-times-xxs" fill="none" xmlns="http://www.w3.org/2000/svg">
<g id="SVGRepo_bgCarrier" stroke-width="0"/>
<g id="SVGRepo_tracerCarrier" stroke-linecap="round" stroke-linejoin="round" stroke="#CCCCCC" stroke-width="0.048"/>
<g id="SVGRepo_iconCarrier">
<path fill-rule="evenodd" clip-rule="evenodd" d="M6.1213 3.9998L7.5355 5.414C8.1213 5.9998 8.1213 6.9495 7.5355 7.5353C6.9497 8.1211 6 8.1211 5.4142 7.5353L4 6.1211L2.5858 7.5353C2 8.1211 1.05025 8.1211 0.46447 7.5353C-0.12132 6.9495 -0.12132 5.9998 0.46447 5.414L1.87868 3.9998L0.46447 2.5856C-0.12132 1.99978 -0.12132 1.05003 0.46447 0.46424C1.05025 -0.12154 2 -0.12154 2.5858 0.46424L4 1.87846L5.4142 0.46424C6 -0.12154 6.9497 -0.12154 7.5355 0.46424C8.1213 1.05003 8.1213 1.99978 7.5355 2.5856L6.1213 3.9998z" fill="#758CA3"/>
</g>
</svg>