<?xml version="1.0" encoding="UTF-8"?>
<svg version="1.1" xmlns="http://www.w3.org/2000/svg" width="400" height="400">
<path d="M0 0 C3.00622203 2.68885379 5.91475137 5.46812745 8.8125 8.2734375 C9.71097656 9.13195312 10.60945313 9.99046875 11.53515625 10.875 C16.81006728 16.0146569 21.57488047 21.24834471 25.8125 27.2734375 C26.40949707 28.12107666 26.40949707 28.12107666 27.01855469 28.98583984 C38.7746344 45.8792131 47.80580782 64.26647374 52.8125 84.2734375 C53.02132813 85.10407715 53.23015625 85.9347168 53.4453125 86.79052734 C63.23739337 127.8568412 55.63972849 171.15001477 34.9296875 207.5859375 C31.77733132 212.67494299 28.27747705 217.45083451 24.53125 222.1171875 C23.4378291 223.48893372 22.37162241 224.88316182 21.34375 226.3046875 C11.96909634 239.12309149 0.09854158 249.6931912 -13.1875 258.2734375 C-14.24453125 258.96824219 -15.3015625 259.66304688 -16.390625 260.37890625 C-54.08512242 284.37897419 -98.42434459 291.84003103 -142.0234375 282.2421875 C-173.3188687 274.84654908 -204.20692974 258.28745893 -224.83984375 233.1328125 C-227.12556329 230.24635564 -227.12556329 230.24635564 -229.73046875 227.76953125 C-245.97468743 211.26705791 -256.33908933 186.30259403 -262.1875 164.2734375 C-262.40067871 163.47711914 -262.61385742 162.68080078 -262.83349609 161.86035156 C-268.58914474 139.2120339 -269.20248441 110.92880659 -263.1875 88.2734375 C-262.88150879 87.08572754 -262.88150879 87.08572754 -262.56933594 85.87402344 C-257.36077606 66.10878967 -249.08788771 48.0577159 -237.875 30.9609375 C-237.4421167 30.29570068 -237.0092334 29.63046387 -236.56323242 28.94506836 C-235.49310846 27.34947663 -234.34666277 25.80556672 -233.1875 24.2734375 C-232.5275 24.2734375 -231.8675 24.2734375 -231.1875 24.2734375 C-230.8471875 23.190625 -230.8471875 23.190625 -230.5 22.0859375 C-228.91763923 18.69516442 -226.87072277 16.87593293 -224.1875 14.2734375 C-223.39472656 13.44585937 -222.60195312 12.61828125 -221.78515625 11.765625 C-163.87097206 -48.02251585 -63.74267584 -55.49872829 0 0 Z M-221.1875 29.2734375 C-222.02083333 32.2734375 -222.02083333 32.2734375 -221.1875 35.2734375 C-219.48356146 38.18248633 -219.48356146 38.18248633 -216.1875 40.2734375 C-212.06805255 40.89422795 -208.028887 40.74374151 -203.875 40.5859375 C-202.75287109 40.56337891 -201.63074219 40.54082031 -200.47460938 40.51757812 C-197.71087464 40.45877526 -194.94987446 40.37664151 -192.1875 40.2734375 C-191.97351563 41.52640625 -191.75953125 42.779375 -191.5390625 44.0703125 C-189.99271381 51.767095 -187.64466423 59.23819781 -185.39208984 66.7510376 C-184.54500518 69.5819033 -183.70709521 72.41535456 -182.87109375 75.24951172 C-179.92027803 85.23129479 -176.91407729 95.19309357 -173.81484985 105.12988281 C-172.29412804 110.01696951 -170.79443903 114.91039573 -169.29669189 119.80456543 C-168.56067971 122.18930486 -167.81462674 124.57096981 -167.05828857 126.94934082 C-165.99275715 130.30273314 -164.9619678 133.66512333 -163.9375 137.03125 C-163.61327057 138.02123993 -163.28904114 139.01122986 -162.95498657 140.03121948 C-160.86574038 147.06818429 -161.53871477 151.50743983 -164.1875 158.2734375 C-165.54246147 164.6794895 -165.70581605 169.48524012 -162.1875 175.2734375 C-157.60652492 180.18960588 -152.81524418 182.29812219 -146.1875 183.2734375 C-143.27760197 183.30155202 -140.39115405 183.12425255 -137.48828125 182.93359375 C-136.65386505 182.88412094 -135.81944885 182.83464813 -134.95974731 182.78367615 C-126.97469091 182.29573645 -119.00080603 181.66358026 -111.0262146 181.03079224 C-98.27814172 180.02254949 -85.55207534 179.1949975 -72.76953125 178.7734375 C-71.65163208 178.73524399 -70.53373291 178.69705048 -69.38195801 178.65769958 C-63.88239398 178.47302948 -58.38349128 178.31200203 -52.88232422 178.18383789 C-50.87335279 178.12188911 -48.86439982 178.05933797 -46.85546875 177.99609375 C-45.47389336 177.97573059 -45.47389336 177.97573059 -44.06440735 177.95495605 C-38.98484159 177.7861252 -38.98484159 177.7861252 -34.57543945 175.42358398 C-32.88776117 173.261695 -32.88776117 173.261695 -33.3125 170.1484375 C-33.97058824 167.17662377 -33.97058824 167.17662377 -36.1875 165.2734375 C-40.04614518 163.80151121 -44.2007666 164.1313426 -48.26953125 164.16015625 C-49.06422318 164.1634343 -49.8589151 164.16671234 -50.6776886 164.17008972 C-59.42185055 164.23650951 -68.1438956 164.62854957 -76.875 165.0859375 C-77.71758362 165.12845642 -78.56016724 165.17097534 -79.42828369 165.21478271 C-94.46414754 165.97706654 -109.46912752 167.05188668 -124.47143555 168.30786133 C-145.51800643 170.05196912 -145.51800643 170.05196912 -152.1875 168.2734375 C-151.6925 164.3134375 -151.6925 164.3134375 -151.1875 160.2734375 C-150.27024139 160.1764859 -149.35298279 160.0795343 -148.40792847 159.97964478 C-125.63938988 157.56515982 -102.89363559 154.99787309 -80.16455078 152.23632812 C-76.04055183 151.73556129 -71.9156722 151.24244097 -67.79057503 150.75081444 C-64.55070464 150.36344292 -61.31146635 149.97097644 -58.07238388 149.57707596 C-56.54887986 149.39264125 -55.02515337 149.21003352 -53.501194 149.02939987 C-51.39609901 148.77937438 -49.29199875 148.52215617 -47.18798828 148.26318359 C-45.40680099 148.04811661 -45.40680099 148.04811661 -43.58963013 147.82870483 C-36.96486111 146.91579351 -36.96486111 146.91579351 -31.3583374 143.61264038 C-29.78189192 140.46307767 -29.10021968 137.27877305 -28.45410156 133.84619141 C-28.30575363 133.10422012 -28.1574057 132.36224884 -28.00456238 131.59779358 C-27.51832871 129.1505096 -27.04775747 126.70051964 -26.578125 124.25 C-26.24434636 122.54360775 -25.9099253 120.83734105 -25.57489014 119.13119507 C-24.87549214 115.55654703 -24.18382098 111.98051262 -23.49755859 108.40332031 C-22.61864202 103.8251682 -21.72083567 99.25096682 -20.81720352 94.6776371 C-20.12330563 91.15488628 -19.43942609 87.63024757 -18.75853729 84.1049614 C-18.43146651 82.41791714 -18.10131992 80.73146613 -17.768013 79.04564285 C-17.30294576 76.68541323 -16.85142853 74.3229725 -16.40332031 71.95947266 C-16.26417709 71.26732162 -16.12503387 70.57517059 -15.98167419 69.86204529 C-15.214975 65.72412513 -14.8929941 62.3087086 -16.1875 58.2734375 C-19.9057601 54.58380763 -22.33599018 53.77517812 -27.52131653 53.79241943 C-28.79872711 53.78692078 -30.0761377 53.78142212 -31.39225769 53.77575684 C-32.80032727 53.78991163 -34.20839303 53.80445084 -35.61645508 53.81933594 C-37.10485809 53.82046469 -38.59326332 53.81983 -40.08166504 53.81756592 C-44.11655988 53.81641893 -48.15097843 53.83992545 -52.18576264 53.86786175 C-56.40447206 53.89287807 -60.62319257 53.89521758 -64.84196472 53.89996338 C-72.82820406 53.91239249 -80.81422421 53.94521317 -88.80036706 53.98536134 C-97.89338664 54.03008109 -106.98641673 54.05206659 -116.07951891 54.07214308 C-134.78230352 54.11394591 -153.48488413 54.18429667 -172.1875 54.2734375 C-172.34043518 53.16949142 -172.49337036 52.06554535 -172.65093994 50.92814636 C-173.32845409 46.31334708 -174.56871337 42.03449406 -175.9375 37.5859375 C-176.17726562 36.74482422 -176.41703125 35.90371094 -176.6640625 35.03710938 C-176.91414063 34.22435547 -177.16421875 33.41160156 -177.421875 32.57421875 C-177.75010254 31.47847534 -177.75010254 31.47847534 -178.08496094 30.3605957 C-179.6581845 27.38240965 -181.32734827 26.04839959 -184.1875 24.2734375 C-187.6755537 23.64521726 -187.6755537 23.64521726 -191.5 23.70703125 C-192.5370105 23.69773338 -192.5370105 23.69773338 -193.5949707 23.68824768 C-195.05060423 23.68117203 -196.50631907 23.68428422 -197.96191406 23.69702148 C-200.18185987 23.71090223 -202.39759645 23.67677961 -204.6171875 23.63867188 C-206.03645936 23.63772065 -207.45573646 23.63957971 -208.875 23.64453125 C-210.15761719 23.64380615 -211.44023437 23.64308105 -212.76171875 23.64233398 C-217.04991866 24.4323138 -218.52519887 25.88718277 -221.1875 29.2734375 Z M-163.9375 195.4609375 C-167.18107474 199.51540592 -169.26062498 203.23875067 -169.1328125 208.54296875 C-168.15912044 214.37518549 -165.60878541 218.39240891 -161.1875 222.2734375 C-157.14622129 224.71947461 -152.81011924 224.83872822 -148.1875 224.2734375 C-142.74870134 222.42424595 -139.41388275 218.89756912 -136.1875 214.2734375 C-134.56649346 209.41041787 -134.79688715 205.5320789 -136.3125 200.6484375 C-139.03147597 195.75428076 -142.16358383 193.12348229 -147.3125 190.9609375 C-153.95769238 189.37186976 -158.70185424 191.29621928 -163.9375 195.4609375 Z M-68.1875 198.2734375 C-70.88241333 202.7997532 -70.92783268 207.13737953 -70.1875 212.2734375 C-68.46952923 216.76777174 -65.90576037 220.12940662 -61.875 222.7734375 C-56.08527789 225.1285787 -51.66944851 225.16057371 -46 222.7734375 C-41.55281432 220.26476866 -38.96309761 217.05200435 -37.1875 212.2734375 C-36.30022969 207.18537416 -36.54904792 203.50473795 -38.9375 198.8984375 C-39.68 198.0321875 -40.4225 197.1659375 -41.1875 196.2734375 C-41.80625 195.5309375 -42.425 194.7884375 -43.0625 194.0234375 C-46.29289671 191.3631108 -49.51741836 190.48755053 -53.625 189.9609375 C-59.88368759 190.72419208 -64.15819827 193.55339833 -68.1875 198.2734375 Z " fill="#FEFEFE" transform="translate(303.1875,75.7265625)"/>
<path d="M0 0 C14.19 0 28.38 0 43 0 C43 9.57 43 19.14 43 29 C31.45 29 19.9 29 8 29 C7.05125 26.174375 6.1025 23.34875 5.125 20.4375 C4.82996582 19.56150146 4.53493164 18.68550293 4.23095703 17.78295898 C0 5.13436867 0 5.13436867 0 0 Z " fill="#FDFCFD" transform="translate(137,146)"/>
<path d="M0 0 C11.88 0 23.76 0 36 0 C36 9.24 36 18.48 36 28 C18.18 29.98 18.18 29.98 0 32 C0 21.44 0 10.88 0 0 Z " fill="#FDFDFD" transform="translate(188,183)"/>
<path d="M0 0 C11.88 0 23.76 0 36 0 C36 9.57 36 19.14 36 29 C24.12 29 12.24 29 0 29 C0 19.43 0 9.86 0 0 Z " fill="#FDFCFC" transform="translate(188,146)"/>
<path d="M0 0 C12.54 0 25.08 0 38 0 C37.39203806 6.68758137 36.78512657 13.02871291 35.5 19.5625 C35.36980469 20.25923828 35.23960937 20.95597656 35.10546875 21.67382812 C34.13715414 26.72569172 34.13715414 26.72569172 33 29 C22.11 29 11.22 29 0 29 C0 19.43 0 9.86 0 0 Z " fill="#FCFCFC" transform="translate(231,146)"/>
<path d="M0 0 C10.56 0 21.12 0 32 0 C32 10.89 32 21.78 32 33 C24.74 33.99 17.48 34.98 10 36 C0 6.45454545 0 6.45454545 0 0 Z " fill="#FEFDFD" transform="translate(148,183)"/>
<path d="M0 0 C10.23 0 20.46 0 31 0 C30 11 30 11 27 24 C18.09 24.99 9.18 25.98 0 27 C0 18.09 0 9.18 0 0 Z " fill="#FDFDFD" transform="translate(231,183)"/>
</svg>
